<svg xmlns="http://www.w3.org/2000/svg" viewBox="0 0 64 64" xmlns:c2pa="http://c2pa.org/manifest"><metadata><c2pa:manifest>AAAWgmp1bWIAAAAeanVtZGMycGEAEQAQgAAAqgA4m3EDYzJwYQAAABZcanVtYgAAAEdqdW1kYzJtYQARABCAAACqADibcQN1cm46YzJwYTowNDk5YjQ3Ni1jZTY4LTQwZTEtODI3My01MTIwMGM1ZGVhYjYAAAADl2p1bWIAAAApanVtZGMyYXMAEQAQgAAAqgA4m3EDYzJwYS5hc3NlcnRpb25zAAAAALxqdW1iAAAARGp1bWRjYm9yABEAEIAAAKoAOJtxE2MycGEuaW5ncmVkaWVudC52MwAAAAAYYzJzaBmQEu8HCm8cVADZKls24l4AAABwY2JvcqNpZGM6Zm9ybWF0bWltYWdlL3N2Zyt4bWxqaW5zdGFuY2VJRHgseG1wOmlpZDo5MmIyNGE5MS01ODE2LTQzODEtYTNjZS1jOTQ0ZTUxMWM2MzNscmVsYXRpb25zaGlwaHBhcmVudE9mAAAB4mp1bWIAAABBanVtZGNib3IAEQAQgAAAqgA4m3ETYzJwYS5hY3Rpb25zLnYyAAAAABhjMnNoBGhZ4VtkypX3xjacl/q5LQAAAZljYm9yomdhY3Rpb25zgqJmYWN0aW9ua2MycGEub3BlbmVkanBhcmFtZXRlcnOha2luZ3JlZGllbnRzgaJjdXJseC1zZWxmI2p1bWJmPWMycGEuYXNzZXJ0aW9ucy9jMnBhLmluZ3JlZGllbnQudjNkaGFzaFggihFVcesqP83CjXavzpxVPhNg7m3Ptw0W4vchFpjIYUSkZmFjdGlvbngdY29tLmFudGhyb3BpYy5jbGF1ZGUucHJvdmlkZWRqcGFyYW1ldGVyc6F4H2NvbS5hbnRocm9waWMub3JpZ2luLWNvbmZpZGVuY2VndW5rbm93bmtkZXNjcmlwdGlvbnhmQ2xhdWRlIHByb3ZpZGVkIHRoaXMgZmlsZSBhdCB0aGUgcmVxdWVzdCBvZiBhIHVzZXIgYW5kIG1heSBoYXZlIGNyZWF0ZWQgb3IgbW9kaWZpZWQgdGhlIGZpbGUgY29udGVudHMubXNvZnR3YXJlQWdlbnShZG5hbWVmQ2xhdWRlcmFsbEFjdGlvbnNJbmNsdWRlZPUAAADIanVtYgAAAEBqdW1kY2JvcgARABCAAACqADibcRNjMnBhLmhhc2guZGF0YQAAAAAYYzJzaDPskumou0SKSLPYZOqih7MAAACAY2JvcqVjYWxnZnNoYTI1NmNwYWRNAAAAAAAAAAAAAAAAAGRoYXNoWCA4tgGtn0H48j7mLeW4mdApsJS52g0nZf7P/khzq+EjN2RuYW1lbmp1bWJmIG1hbmlmZXN0amV4Y2x1c2lvbnOBomVzdGFydBh7Zmxlbmd0aBkeBAAAAj5qdW1iAAAAJ2p1bWRjMmNsABEAEIAAAKoAOJtxA2MycGEuY2xhaW0udjIAAAACD2Nib3KlY2FsZ2ZzaGEyNTZpc2lnbmF0dXJleE1zZWxmI2p1bWJmPS9jMnBhL3VybjpjMnBhOjA0OTliNDc2LWNlNjgtNDBlMS04MjczLTUxMjAwYzVkZWFiNi9jMnBhLnNpZ25hdHVyZWppbnN0YW5jZUlEeCx4bXA6aWlkOjA1MjQ1N2NjLTcwYWMtNGYzYS1hYTI0LTAyMDk5NzU5NjU0OHJjcmVhdGVkX2Fzc2VydGlvbnODomN1cmx4LXNlbGYjanVtYmY9YzJwYS5hc3NlcnRpb25zL2MycGEuaW5ncmVkaWVudC52M2RoYXNoWCCKEVVx6yo/zcKNdq/OnFU+E2Dubc+3DRbi9yEWmMhhRKJjdXJseCpzZWxmI2p1bWJmPWMycGEuYXNzZXJ0aW9ucy9jMnBhLmFjdGlvbnMudjJkaGFzaFgge+ztprHDdwElmmozM7EFMsoOmJn8U7tlHIKucYWcMn+iY3VybHgpc2VsZiNqdW1iZj1jMnBhLmFzc2VydGlvbnMvYzJwYS5oYXNoLmRhdGFkaGFzaFggBqCNJyGG7xUNlZH7ZuOnH8yx/AVEfLTqFSL6SzgTijx0Y2xhaW1fZ2VuZXJhdG9yX2luZm+jZG5hbWVvQW50aHJvcGljIEZpbGVzZ3ZlcnNpb25lMS4wLjBrc3BlY1ZlcnNpb25lMi40LjAAABA4anVtYgAAAChqdW1kYzJjcwARABCAAACqADibcQNjMnBhLnNpZ25hdHVyZQAAABAIY2JvctKEWQISogEmGCFZAgowggIGMIIBjaADAgECAhRA5aAK7sI50L64g/oGQgU9Z1UTADAKBggqhkjOPQQDAzBJMRcwFQYDVQQKEw5BbnRocm9waWMsIFBCQzEuMCwGA1UEAxMlQW50aHJvcGljIENvbnRlbnQgQ3JlZGVudGlhbHMgUm9vdCBDQTAeFw0yNjA4MDcxODQzNTZaFw0yODA4MDYxOTQzNTZaMEQxFzAVBgNVBAoTDkFudGhyb3BpYywgUEJDMSkwJwYDVQQDEyBBbnRocm9waWMgQ2xhdWRlIENvbnRlbnQgU2lnbmluZzBZMBMGByqGSM49AgEGCCqGSM49AwEHA0IABJh6CmvLUBgFFNU0vUKlOVtE6djd17L5SuwX0LemFisBM3dkd/3cyjxFA3Qo5S46fX0/ihY0VZ7mfb9KF703t5OjWDBWMA4GA1UdDwEB/wQEAwIHgDAVBgNVHSUEDjAMBgorBgEEAYPoXgIBMAwGA1UdEwEB/wQCMAAwHwYDVR0jBBgwFoAUzlHiBIFOZFsj+OPEz5o+nMHXXMIwCgYIKoZIzj0EAwMDZwAwZAIwMXMdFJ4BetLLVY7ORuE9noqbbAZOZn/aArXyTwFAZfKrPzxF2vPoJNf1+UCdg1XGAjBwX1zd9WGqYkqmL5SFqw1QySjr1zJfpJM9+1rdDwSPLMOPOjKuiXjoU/pUUeG9RwmhY3BhZFkNngAAAAAAAAAAAAAAAAAAAAAAAAAAAAAAAAAAAAAAAAAAAAAAAAAAAAAAAAAAAAAAAAAAAAAAAAAAAAAAAAAAAAAAAAAAAAAAAAAAAAAAAAAAAAAAAAAAAAAAAAAAAAAAAAAAAAAAAAAAAAAAAAAAAAAAAAAAAAAAAAAAAAAAAAAAAAAAAAAAAAAAAAAAAAAAAAAAAAAAAAAAAAAAAAAAAAAAAAAAAAAAAAAAAAAAAAAAAAAAAAAAAAAAAAAAAAAAAAAAAAAAAAAAAAAAAAAAAAAAAAAAAAAAAAAAAAAAAAAAAAAAAAAAAAAAAAAAAAAAAAAAAAAAAAAAAAAAAAAAAAAAAAAAAAAAAAAAAAAAAAAAAAAAAAAAAAAAAAAAAAAAAAAAAAAAAAAAAAAAAAAAAAAAAAAAAAAAAAAAAAAAAAAAAAAAAAAAAAAAAAAAAAAAAAAAAAAAAAAAAAAAAAAAAAAAAAAAAAAAAAAAAAAAAAAAAAAAAAAAAAAAAAAAAAAAAAAAAAAAAAAAAAAAAAAAAAAAAAAAAAAAAAAAAAAAAAAAAAAAAAAAAAAAAAAAAAAAAAAAAAAAAAAAAAAAAAAAAAAAAAAAAAAAAAAAAAAAAAAAAAAAAAAAAAAAAAAAAAAAAAAAAAAAAAAAAAAAAAAAAAAAAAAAAAAAAAAAAAAAAAAAAAAAAAAAAAAAAAAAAAAAAAAAAAAAAAAAAAAAAAAAAAAAAAAAAAAAAAAAAAAAAAAAAAAAAAAAAAAAAAAAAAAAAAAAAAAAAAAAAAAAAAAAAAAAAAAAAAAAAAAAAAAAAAAAAAAAAAAAAAAAAAAAAAAAAAAAAAAAAAAAAAAAAAAAAAAAAAAAAAAAAAAAAAAAAAAAAAAAAAAAAAAAAAAAAAAAAAAAAAAAAAAAAAAAAAAAAAAAAAAAAAAAAAAAAAAAAAAAAAAAAAAAAAAAAAAAAAAAAAAAAAAAAAAAAAAAAAAAAAAAAAAAAAAAAAAAAAAAAAAAAAAAAAAAAAAAAAAAAAAAAAAAAAAAAAAAAAAAAAAAAAAAAAAAAAAAAAAAAAAAAAAAAAAAAAAAAAAAAAAAAAAAAAAAAAAAAAAAAAAAAAAAAAAAAAAAAAAAAAAAAAAAAAAAAAAAAAAAAAAAAAAAAAAAAAAAAAAAAAAAAAAAAAAAAAAAAAAAAAAAAAAAAAAAAAAAAAAAAAAAAAAAAAAAAAAAAAAAAAAAAAAAAAAAAAAAAAAAAAAAAAAAAAAAAAAAAAAAAAAAAAAAAAAAAAAAAAAAAAAAAAAAAAAAAAAAAAAAAAAAAAAAAAAAAAAAAAAAAAAAAAAAAAAAAAAAAAAAAAAAAAAAAAAAAAAAAAAAAAAAAAAAAAAAAAAAAAAAAAAAAAAAAAAAAAAAAAAAAAAAAAAAAAAAAAAAAAAAAAAAAAAAAAAAAAAAAAAAAAAAAAAAAAAAAAAAAAAAAAAAAAAAAAAAAAAAAAAAAAAAAAAAAAAAAAAAAAAAAAAAAAAAAAAAAAAAAAAAAAAAAAAAAAAAAAAAAAAAAAAAAAAAAAAAAAAAAAAAAAAAAAAAAAAAAAAAAAAAAAAAAAAAAAAAAAAAAAAAAAAAAAAAAAAAAAAAAAAAAAAAAAAAAAAAAAAAAAAAAAAAAAAAAAAAAAAAAAAAAAAAAAAAAAAAAAAAAAAAAAAAAAAAAAAAAAAAAAAAAAAAAAAAAAAAAAAAAAAAAAAAAAAAAAAAAAAAAAAAAAAAAAAAAAAAAAAAAAAAAAAAAAAAAAAAAAAAAAAAAAAAAAAAAAAAAAAAAAAAAAAAAAAAAAAAAAAAAAAAAAAAAAAAAAAAAAAAAAAAAAAAAAAAAAAAAAAAAAAAAAAAAAAAAAAAAAAAAAAAAAAAAAAAAAAAAAAAAAAAAAAAAAAAAAAAAAAAAAAAAAAAAAAAAAAAAAAAAAAAAAAAAAAAAAAAAAAAAAAAAAAAAAAAAAAAAAAAAAAAAAAAAAAAAAAAAAAAAAAAAAAAAAAAAAAAAAAAAAAAAAAAAAAAAAAAAAAAAAAAAAAAAAAAAAAAAAAAAAAAAAAAAAAAAAAAAAAAAAAAAAAAAAAAAAAAAAAAAAAAAAAAAAAAAAAAAAAAAAAAAAAAAAAAAAAAAAAAAAAAAAAAAAAAAAAAAAAAAAAAAAAAAAAAAAAAAAAAAAAAAAAAAAAAAAAAAAAAAAAAAAAAAAAAAAAAAAAAAAAAAAAAAAAAAAAAAAAAAAAAAAAAAAAAAAAAAAAAAAAAAAAAAAAAAAAAAAAAAAAAAAAAAAAAAAAAAAAAAAAAAAAAAAAAAAAAAAAAAAAAAAAAAAAAAAAAAAAAAAAAAAAAAAAAAAAAAAAAAAAAAAAAAAAAAAAAAAAAAAAAAAAAAAAAAAAAAAAAAAAAAAAAAAAAAAAAAAAAAAAAAAAAAAAAAAAAAAAAAAAAAAAAAAAAAAAAAAAAAAAAAAAAAAAAAAAAAAAAAAAAAAAAAAAAAAAAAAAAAAAAAAAAAAAAAAAAAAAAAAAAAAAAAAAAAAAAAAAAAAAAAAAAAAAAAAAAAAAAAAAAAAAAAAAAAAAAAAAAAAAAAAAAAAAAAAAAAAAAAAAAAAAAAAAAAAAAAAAAAAAAAAAAAAAAAAAAAAAAAAAAAAAAAAAAAAAAAAAAAAAAAAAAAAAAAAAAAAAAAAAAAAAAAAAAAAAAAAAAAAAAAAAAAAAAAAAAAAAAAAAAAAAAAAAAAAAAAAAAAAAAAAAAAAAAAAAAAAAAAAAAAAAAAAAAAAAAAAAAAAAAAAAAAAAAAAAAAAAAAAAAAAAAAAAAAAAAAAAAAAAAAAAAAAAAAAAAAAAAAAAAAAAAAAAAAAAAAAAAAAAAAAAAAAAAAAAAAAAAAAAAAAAAAAAAAAAAAAAAAAAAAAAAAAAAAAAAAAAAAAAAAAAAAAAAAAAAAAAAAAAAAAAAAAAAAAAAAAAAAAAAAAAAAAAAAAAAAAAAAAAAAAAAAAAAAAAAAAAAAAAAAAAAAAAAAAAAAAAAAAAAAAAAAAAAAAAAAAAAAAAAAAAAAAAAAAAAAAAAAAAAAAAAAAAAAAAAAAAAAAAAAAAAAAAAAAAAAAAAAAAAAAAAAAAAAAAAAAAAAAAAAAAAAAAAAAAAAAAAAAAAAAAAAAAAAAAAAAAAAAAAAAAAAAAAAAAAAAAAAAAAAAAAAAAAAAAAAAAAAAAAAAAAAAAAAAAAAAAAAAAAAAAAAAAAAAAAAAAAAAAAAAAAAAAAAAAAAAAAAAAAAAAAAAAAAAAAAAAAAAAAAAAAAAAAAAAAAAAAAAAAAAAAAAAAAAAAAAAAAAAAAAAAAAAAAAAAAAAAAAAAAAAAAAAAAAAAAAAAAAAAAAAAAAAAAAAAAAAAAAAAAAAAAAAAAAAAAAAAAAAAAAAAAAAAAAAAAAAAAAAAAAAAAAAAAAAAAAAAAAAAAAAAAAAAAAAAAAAAAAAAAAAAAAAAAAAAAAAAAAAAAAAAAAAAAAAAAAAAAAAAAAAAAAAAAAAAAAAAAAAAAAAAAAAAAAAAAAAAAAAAAAAAAAAAAAAAAAAAAAAAAAAAAAAAAAAAAAAAAAAAAAAAAAAAAAAAAAAAAAAAAAAAAAAAAAAAAAAAAAAAAAAAAAAAAAAAAAAAAAAAAAAAAAAAAAAAAAAAAAAAAAAAAAAAAAAAAAAAAAAAAAAAAAAAAAAAAAAAAAAAAAAAAAAAAAAAAAAAAAAAAAAAAAAAAAAAAAAAAAAAAAAAAAAAAAAAAAAAAAAAAAAAAAAAAAAAAAAAAAAAAAAAAAAAAAAAAAAAAAAAAAAAAAAAAAAAAAAAAAAAAAAAAAAAAAAAAAAAAAAAAAAAAAAAAAAAAAAAAAAAAAAAAAAAAAAAAAAAAAAAAAAAAAAAAAAAAAAAAAAAAAAAAAAAAAAAAAAAAAAAAAAAAAAAAAAAAAAAAAAAAAAAAAAAAAAAAAAAAAAAAAAAAAAAAAAAAAAAAAAAAAAAAAAAAAAAAAAAAAAAAAAAAAAAAAAAAAAAAAAAAAAAAAAAAAAAAAAAAAAAAAAAAAAAAAAAAAAAAAAAAAAAAAAAAAAAAAAAAAAAAAAAAAAAAAAAAAAAAAAAAAAAAAAAAAAAAAAAAAAAAAAAAAAAAAAAAAAAAAAAAAAAAAAAAAAAAAAAAAAAAAAAAAAAAAAAAAAAAAAAAAAAAAAAAAAAAAAAAAAAAAAAAAAAAAAAAAAAAAAAAAAAAAAAAAAAAAAAAAAAAAAAAAAAAAAAAAAAAAAAAAAAAAAAAAAAAAAAAAAAAAAAAAAAAAAAAAAAAAAAAAAAAAAAAAAAAAAAAAAAAAAAAAAAAAAAAAAAAAAAAAAAAAAAAAAAAAAAAAAAAAAAAAAAAAAAAAAAAAAAAAAAAAAAAAAAAAAAAAAAAAAAAAAAAAAAAAAAAAAAAAAAAAAAAAAAAAAAAAAAAAAAAAAAAAAAAAAAAAAAAAAAAAAAAAAAAAAAAAAAAAAAAAAAAAAAAAAAAAAAAAAAAAAAAAAAAAAAAAAAAAAAAAAAAAAAAAAAAAAAAAAAAAAAAAAAAAAAAAAAAAAAAAAAAAAAAAAAAAAAAAAAAAAAAAAAAAAAAAAAAAAAAAAAAAAAAAAAAAAAAAAAAAAAAAAAAAAAAAAAAAAAAAAAAPZYQI7Kn5qqWv+HPQK5v6DZm9xZZwnXM6aK/cSk7TT1H+MJ0oqeFZd2IR04WoNvRPvt588e4JqRwe76+GwSuaFZA6A=</c2pa:manifest></metadata><circle cx="30.73" cy="33.16" r="0.73" fill="#8fb69a"></circle><circle cx="32.26" cy="29.03" r="0.79" fill="#90b69a"></circle><circle cx="34.34" cy="35.05" r="0.82" fill="#90b699"></circle><circle cx="27.52" cy="31.21" r="0.85" fill="#91b699"></circle><circle cx="36.36" cy="29.23" r="0.87" fill="#91b698"></circle><circle cx="30.52" cy="37.51" r="0.89" fill="#92b698"></circle><circle cx="29.14" cy="26.49" r="0.91" fill="#93b698"></circle><circle cx="38.26" cy="34.29" r="0.93" fill="#93b697"></circle><circle cx="25.44" cy="34.71" r="0.95" fill="#94b697"></circle><circle cx="35.18" cy="25.21" r="0.96" fill="#94b597"></circle><circle cx="34.36" cy="39.52" r="0.98" fill="#95b596"></circle><circle cx="24.86" cy="27.86" r="0.99" fill="#95b596"></circle><circle cx="40.4" cy="30.15" r="1.01" fill="#96b595"></circle><circle cx="26.86" cy="39.31" r="1.02" fill="#97b595"></circle><circle cx="30.81" cy="22.81" r="1.03" fill="#97b595"></circle><circle cx="39.33" cy="38.17" r="1.04" fill="#98b594"></circle><circle cx="22.12" cy="32.41" r="1.06" fill="#98b594"></circle><circle cx="39.22" cy="24.82" r="1.07" fill="#99b594"></circle><circle cx="31.52" cy="42.45" r="1.08" fill="#9ab593"></circle><circle cx="25.12" cy="23.75" r="1.09" fill="#9ab593"></circle><circle cx="42.92" cy="33.47" r="1.1" fill="#9bb592"></circle><circle cx="22.74" cy="38.44" r="1.11" fill="#9bb592"></circle><circle cx="34.53" cy="20.74" r="1.13" fill="#9cb592"></circle><circle cx="37.86" cy="42.23" r="1.14" fill="#9db591"></circle><circle cx="20.53" cy="28.34" r="1.15" fill="#9db591"></circle><circle cx="43.15" cy="26.85" r="1.16" fill="#9eb591"></circle><circle cx="27.16" cy="43.56" r="1.17" fill="#9eb590"></circle><circle cx="27.68" cy="19.99" r="1.18" fill="#9fb490"></circle><circle cx="43.5" cy="38.04" r="1.19" fill="#9fb48f"></circle><circle cx="19.22" cy="35.37" r="1.2" fill="#a0b48f"></circle><circle cx="39.27" cy="20.7" r="1.21" fill="#a1b48f"></circle><circle cx="34.31" cy="45.46" r="1.22" fill="#a1b48e"></circle><circle cx="21.03" cy="23.51" r="1.23" fill="#a2b48e"></circle><circle cx="46.04" cy="30.84" r="1.23" fill="#a2b48e"></circle><circle cx="22.29" cy="42.49" r="1.24" fill="#a3b48d"></circle><circle cx="32.07" cy="17.5" r="1.25" fill="#a4b48d"></circle><circle cx="41.88" cy="42.89" r="1.26" fill="#a4b48c"></circle><circle cx="17.16" cy="30.62" r="1.27" fill="#a5b48c"></circle><circle cx="44.03" cy="22.87" r="1.28" fill="#a5b48c"></circle><circle cx="29.26" cy="47.05" r="1.29" fill="#a6b48b"></circle><circle cx="23.75" cy="18.89" r="1.3" fill="#a6b48b"></circle><circle cx="47.12" cy="36.14" r="1.3" fill="#a7b48b"></circle><circle cx="17.89" cy="39.24" r="1.31" fill="#a8b48a"></circle><circle cx="37.58" cy="16.95" r="1.32" fill="#a8b48a"></circle><circle cx="38.12" cy="47.03" r="1.33" fill="#a9b489"></circle><circle cx="17.17" cy="24.97" r="1.34" fill="#a9b389"></circle><circle cx="47.86" cy="27.11" r="1.35" fill="#aab389"></circle><circle cx="23.52" cy="46.47" r="1.35" fill="#abb388"></circle><circle cx="28.44" cy="15.43" r="1.36" fill="#abb388"></circle><circle cx="45.96" cy="41.91" r="1.37" fill="#acb387"></circle><circle cx="14.84" cy="34.14" r="1.38" fill="#acb387"></circle><circle cx="43.32" cy="18.7" r="1.39" fill="#adb387"></circle><circle cx="32.64" cy="49.62" r="1.39" fill="#aeb386"></circle><circle cx="19.51" cy="19.32" r="1.4" fill="#aeb386"></circle><circle cx="49.94" cy="32.92" r="1.41" fill="#afb386"></circle><circle cx="18.03" cy="43.55" r="1.42" fill="#afb385"></circle><circle cx="34.53" cy="13.88" r="1.42" fill="#b0b385"></circle><circle cx="42.46" cy="47.2" r="1.43" fill="#b0b384"></circle><circle cx="13.86" cy="27.83" r="1.44" fill="#b1b384"></circle><circle cx="48.33" cy="22.75" r="1.45" fill="#b2b384"></circle><circle cx="26.16" cy="50" r="1.45" fill="#b2b383"></circle><circle cx="24.08" cy="14.64" r="1.46" fill="#b3b383"></circle><circle cx="49.71" cy="39.51" r="1.47" fill="#b3b383"></circle><circle cx="13.72" cy="38.47" r="1.47" fill="#b4b282"></circle><circle cx="41.18" cy="14.75" r="1.48" fill="#b5b282"></circle><circle cx="36.93" cy="51.07" r="1.49" fill="#b5b281"></circle><circle cx="15.36" cy="21.19" r="1.5" fill="#b6b281"></circle><circle cx="51.72" cy="28.71" r="1.5" fill="#b6b281"></circle><circle cx="19.59" cy="47.86" r="1.51" fill="#b7b280"></circle><circle cx="30.42" cy="11.78" r="1.52" fill="#b8b280"></circle><circle cx="46.93" cy="45.95" r="1.52" fill="#b8b280"></circle><circle cx="11.43" cy="31.8" r="1.53" fill="#b9b27f"></circle><circle cx="47.41" cy="18.15" r="1.54" fill="#b9b27f"></circle><circle cx="29.97" cy="52.76" r="1.54" fill="#bab27f"></circle><circle cx="19.38" cy="15.21" r="1.55" fill="#bab27e"></circle><circle cx="52.78" cy="35.89" r="1.56" fill="#bab27e"></circle><circle cx="13.93" cy="43.25" r="1.56" fill="#bbb17e"></circle><circle cx="37.76" cy="11.37" r="1.57" fill="#bbb17d"></circle><circle cx="41.75" cy="51.23" r="1.58" fill="#bbb17d"></circle><circle cx="11.69" cy="24.36" r="1.58" fill="#bcb17d"></circle><circle cx="52.26" cy="23.87" r="1.59" fill="#bcb17d"></circle><circle cx="22.5" cy="51.8" r="1.6" fill="#bdb17c"></circle><circle cx="25.59" cy="10.85" r="1.6" fill="#bdb17c"></circle><circle cx="51.13" cy="43.34" r="1.61" fill="#bdb07c"></circle><circle cx="10.11" cy="36.59" r="1.61" fill="#beb07b"></circle><circle cx="45.12" cy="13.72" r="1.62" fill="#beb07b"></circle><circle cx="34.69" cy="54.47" r="1.63" fill="#beb07b"></circle><circle cx="14.74" cy="17.16" r="1.63" fill="#bfb07a"></circle><circle cx="54.88" cy="31.28" r="1.64" fill="#bfb07a"></circle><circle cx="15.52" cy="48.08" r="1.65" fill="#c0b07a"></circle><circle cx="33.29" cy="8.89" r="1.65" fill="#c0af7a"></circle><circle cx="46.74" cy="50.02" r="1.66" fill="#c0af79"></circle><circle cx="8.84" cy="28.65" r="1.66" fill="#c1af79"></circle><circle cx="51.44" cy="18.75" r="1.67" fill="#c1af79"></circle><circle cx="26.58" cy="55.03" r="1.68" fill="#c1af78"></circle><circle cx="20.38" cy="11.25" r="1.68" fill="#c2af78"></circle><circle cx="54.7" cy="39.49" r="1.69" fill="#c2af78"></circle><circle cx="10.09" cy="41.86" r="1.69" fill="#c3ae78"></circle><circle cx="41.54" cy="9.81" r="1.7" fill="#c3ae77"></circle><circle cx="39.99" cy="54.92" r="1.71" fill="#c3ae77"></circle><circle cx="10.52" cy="20.44" r="1.71" fill="#c4ae77"></circle><circle cx="55.77" cy="25.98" r="1.72" fill="#c4ae76"></circle><circle cx="18.47" cy="52.59" r="1.72" fill="#c5ae76"></circle><circle cx="28.05" cy="7.56" r="1.73" fill="#c5ae76"></circle><circle cx="51.52" cy="47.42" r="1.74" fill="#c5ad75"></circle><circle cx="7.07" cy="33.82" r="1.74" fill="#c6ad75"></circle><circle cx="49.23" cy="13.73" r="1.75" fill="#c6ad75"></circle><circle cx="31.63" cy="57.23" r="1.75" fill="#c6ad75"></circle><circle cx="15.15" cy="13.06" r="1.76" fill="#c7ad74"></circle><circle cx="57.33" cy="34.6" r="1.76" fill="#c7ad74"></circle><circle cx="11.47" cy="47.26" r="1.77" fill="#c8ad74"></circle><circle cx="36.85" cy="6.77" r="1.78" fill="#c8ac73"></circle><circle cx="45.53" cy="53.98" r="1.78" fill="#c8ac73"></circle><circle cx="7.07" cy="24.9" r="1.79" fill="#c9ac73"></circle><circle cx="55.28" cy="20.34" r="1.79" fill="#c9ac73"></circle><circle cx="22.67" cy="56.43" r="1.8" fill="#c9ac72"></circle><circle cx="22.34" cy="7.58" r="1.8" fill="#caac72"></circle><circle cx="55.72" cy="43.53" r="1.81" fill="#caac72"></circle><circle cx="6.61" cy="39.56" r="1.81" fill="#cbab71"></circle><circle cx="45.67" cy="9.18" r="1.82" fill="#cbab71"></circle><circle cx="37.35" cy="58.17" r="1.83" fill="#cbab71"></circle><circle cx="10.29" cy="16.25" r="1.83" fill="#ccab70"></circle><circle cx="58.76" cy="28.93" r="1.84" fill="#ccab70"></circle><circle cx="14.27" cy="52.42" r="1.84" fill="#ccab70"></circle><circle cx="31.28" cy="4.86" r="1.85" fill="#cdab70"></circle><circle cx="50.94" cy="51.6" r="1.85" fill="#cdab6f"></circle><circle cx="4.68" cy="30.34" r="1.86" fill="#ceaa6f"></circle><circle cx="53.35" cy="14.71" r="1.86" fill="#ceaa6f"></circle><circle cx="27.92" cy="59.28" r="1.87" fill="#ceaa6e"></circle><circle cx="16.52" cy="9.04" r="1.87" fill="#cfaa6e"></circle><circle cx="59.03" cy="38.5" r="1.88" fill="#cfaa6e"></circle><circle cx="7.59" cy="45.52" r="1.88" fill="#cfaa6e"></circle><circle cx="40.9" cy="5.44" r="1.89" fill="#d0aa6d"></circle><circle cx="43.42" cy="57.69" r="1.89" fill="#d0a96d"></circle><circle cx="6.13" cy="20.73" r="1.9" fill="#d1a96d"></circle><circle cx="58.79" cy="22.8" r="1.91" fill="#d1a96c"></circle><circle cx="18.41" cy="56.97" r="1.91" fill="#d1a96c"></circle><circle cx="25.13" cy="4.31" r="1.92" fill="#d2a96c"></circle><circle cx="55.86" cy="47.84" r="1.92" fill="#d2a96b"></circle><circle cx="3.61" cy="36.45" r="1.93" fill="#d2a96b"></circle><circle cx="49.99" cy="9.46" r="1.93" fill="#d3a86b"></circle><circle cx="33.97" cy="60.88" r="1.94" fill="#d3a86b"></circle><circle cx="10.97" cy="11.96" r="1.94" fill="#d4a86a"></circle><circle cx="61.14" cy="32.57" r="1.95" fill="#d4a86a"></circle></svg>